<?xml version="1.0" encoding="iso-8859-1"?>
<!-- Generator: Adobe Illustrator 19.0.0, SVG Export Plug-In . SVG Version: 6.00 Build 0)  -->
<svg version="1.1" id="Layer_1" xmlns="http://www.w3.org/2000/svg" xmlns:xlink="http://www.w3.org/1999/xlink" x="0px" y="0px"
	 viewBox="0 0 512 512" style="enable-background:new 0 0 512 512;" xml:space="preserve">
<circle style="fill:#EA8953;" cx="256" cy="256" r="256"/>
<path style="opacity:0.1;enable-background:new    ;" d="M510.157,286.279l-139.01-138.973l-0.214-0.267l-0.96-0.96
	c-0.906-0.694-2.027-1.121-3.253-1.121H144.373c-2.933,0-5.333,2.4-5.333,5.333v135.147c0,1.547,0.694,2.986,1.76,3.947l2.826,2.827
	c-2.24,0.107-4.32,0.906-4.8,1.919l-29.227,66.614c-0.214,0.373-0.267,0.694-0.214,1.067h-0.053v3.253h0.053
	c0,0.32,0.159,0.641,0.427,0.96l0.214,0.159l145.809,145.809c0.055,0,0.109,0.004,0.165,0.004
	C387.133,512,495.169,413.383,510.157,286.279z"/>
<path style="fill:#E1E6E9;" d="M401.281,361.633l-28.11-64.044c-0.497-1.077-2.796-1.944-5.139-1.944H143.968
	c-2.343,0-4.642,0.867-5.139,1.944l-28.18,64.202h-1.316v3.276h0.071c0.029,1.141,1.482,1.982,3.868,1.982h285.454
	c2.386,0,3.9-0.843,3.93-1.982v-3.435L401.281,361.633z"/>
<path style="fill:#EBF0F3;" d="M398.727,363.616H113.273c-2.985,0-4.622-1.298-3.668-2.88l29.224-66.58
	c0.496-1.077,2.795-1.943,5.139-1.943h224.064c2.344,0,4.643,0.867,5.139,1.943l29.224,66.58
	C403.349,362.318,401.713,363.616,398.727,363.616z"/>
<polygon style="fill:#E1E6E9;" points="210.827,358.738 219.613,340.577 292.388,340.577 301.173,358.738 "/>
<g>
	<polygon style="fill:#64798A;" points="154.783,303.154 140.808,303.154 142.29,299.802 156.086,299.802 	"/>
	<polygon style="fill:#64798A;" points="176.403,303.154 162.427,303.154 163.631,299.802 177.427,299.802 	"/>
	<polygon style="fill:#64798A;" points="192.999,303.154 179.023,303.154 180.014,299.802 193.809,299.802 	"/>
	<polygon style="fill:#64798A;" points="209.596,303.154 195.62,303.154 196.397,299.802 210.193,299.802 	"/>
	<polygon style="fill:#64798A;" points="226.192,303.154 212.216,303.154 212.779,299.802 226.575,299.802 	"/>
	<polygon style="fill:#64798A;" points="248.903,303.154 234.927,303.154 235.198,299.802 248.994,299.802 	"/>
	<polygon style="fill:#64798A;" points="265.499,303.154 251.523,303.154 251.581,299.802 265.377,299.802 	"/>
	<polygon style="fill:#64798A;" points="282.096,303.154 268.12,303.154 267.964,299.802 281.76,299.802 	"/>
	<polygon style="fill:#64798A;" points="298.692,303.154 284.716,303.154 284.347,299.802 298.143,299.802 	"/>
	<polygon style="fill:#64798A;" points="151.925,310.514 137.554,310.514 139.853,305.315 153.945,305.315 	"/>
	<polygon style="fill:#64798A;" points="170.422,310.514 156.051,310.514 157.991,305.315 172.082,305.315 	"/>
	<polygon style="fill:#64798A;" points="188.919,310.514 174.548,310.514 176.128,305.315 190.22,305.315 	"/>
	<polygon style="fill:#64798A;" points="207.415,310.514 193.044,310.514 194.266,305.315 208.357,305.315 	"/>
	<polygon style="fill:#64798A;" points="225.911,310.514 211.541,310.514 212.403,305.315 226.495,305.315 	"/>
	<polygon style="fill:#64798A;" points="244.408,310.514 230.038,310.514 230.542,305.315 244.633,305.315 	"/>
	<polygon style="fill:#64798A;" points="262.904,310.514 248.534,310.514 248.679,305.315 262.771,305.315 	"/>
	<polygon style="fill:#64798A;" points="281.401,310.514 267.03,310.514 266.817,305.315 280.908,305.315 	"/>
	<polygon style="fill:#64798A;" points="299.898,310.514 285.527,310.514 284.954,305.315 299.046,305.315 	"/>
	<polygon style="fill:#64798A;" points="148.9,318.301 134.113,318.301 136.545,312.799 151.038,312.799 	"/>
	<polygon style="fill:#64798A;" points="167.934,318.301 153.146,318.301 155.199,312.799 169.692,312.799 	"/>
	<polygon style="fill:#64798A;" points="186.969,318.301 172.18,318.301 173.853,312.799 188.346,312.799 	"/>
	<polygon style="fill:#64798A;" points="206.003,318.301 191.215,318.301 192.507,312.799 207.001,312.799 	"/>
	<polygon style="fill:#64798A;" points="225.038,318.301 210.249,318.301 211.161,312.799 225.655,312.799 	"/>
	<polygon style="fill:#64798A;" points="244.071,318.301 229.283,318.301 229.816,312.799 244.309,312.799 	"/>
	<polygon style="fill:#64798A;" points="263.105,318.301 248.317,318.301 248.471,312.799 262.964,312.799 	"/>
	<polygon style="fill:#64798A;" points="282.14,318.301 267.351,318.301 267.125,312.799 281.618,312.799 	"/>
	<polygon style="fill:#64798A;" points="301.174,318.301 286.385,318.301 285.779,312.799 300.272,312.799 	"/>
	<polygon style="fill:#64798A;" points="152.473,326.555 130.464,326.555 133.043,320.722 154.6,320.722 	"/>
	<polygon style="fill:#64798A;" points="172.189,326.555 156.344,326.555 158.392,320.722 173.91,320.722 	"/>
	<polygon style="fill:#64798A;" points="191.871,326.555 176.026,326.555 177.669,320.722 193.188,320.722 	"/>
	<polygon style="fill:#64798A;" points="212.264,326.555 196.42,326.555 197.644,320.722 213.163,320.722 	"/>
	<polygon style="fill:#64798A;" points="232.657,326.555 216.813,326.555 217.618,320.722 233.136,320.722 	"/>
	<polygon style="fill:#64798A;" points="253.05,326.555 237.206,326.555 237.592,320.722 253.11,320.722 	"/>
	<polygon style="fill:#64798A;" points="273.444,326.555 257.599,326.555 257.567,320.722 273.085,320.722 	"/>
	<polygon style="fill:#64798A;" points="302.526,326.555 278.741,326.555 278.273,320.722 301.57,320.722 	"/>
	<polygon style="fill:#64798A;" points="142.291,335.318 126.59,335.318 129.328,329.123 144.697,329.123 	"/>
	<polygon style="fill:#64798A;" points="223.126,335.318 146.799,335.318 149.109,329.123 223.822,329.123 	"/>
	<polygon style="fill:#64798A;" points="243.335,335.318 227.634,335.318 228.234,329.123 243.603,329.123 	"/>
	<polygon style="fill:#64798A;" points="263.544,335.318 247.843,335.318 248.016,329.123 263.384,329.123 	"/>
	<polygon style="fill:#64798A;" points="283.753,335.318 268.052,335.318 267.797,329.123 283.166,329.123 	"/>
	<polygon style="fill:#64798A;" points="303.961,335.318 288.26,335.318 287.578,329.123 302.947,329.123 	"/>
	<polygon style="fill:#64798A;" points="321.897,305.122 307.816,305.122 306.766,299.802 320.561,299.802 	"/>
	<polygon style="fill:#64798A;" points="338.619,305.122 324.536,305.122 323.148,299.802 336.945,299.802 	"/>
	<polygon style="fill:#64798A;" points="355.34,305.122 341.258,305.122 339.531,299.802 353.327,299.802 	"/>
	<polygon style="fill:#64798A;" points="372.061,305.122 357.98,305.122 355.914,299.802 369.71,299.802 	"/>
	<polygon style="fill:#64798A;" points="323.641,312.071 309.186,312.071 308.081,306.469 322.234,306.469 	"/>
	<polygon style="fill:#64798A;" points="340.805,312.071 326.351,312.071 324.889,306.469 339.043,306.469 	"/>
	<polygon style="fill:#64798A;" points="357.97,312.071 343.516,312.071 341.696,306.469 355.85,306.469 	"/>
	<polygon style="fill:#64798A;" points="375.133,312.071 360.679,312.071 358.504,306.469 372.657,306.469 	"/>
	<polygon style="fill:#64798A;" points="325.48,319.399 310.633,319.399 309.467,313.492 323.997,313.492 	"/>
	<polygon style="fill:#64798A;" points="343.111,319.399 328.264,319.399 326.722,313.492 341.252,313.492 	"/>
	<polygon style="fill:#64798A;" points="360.742,319.399 345.895,319.399 343.976,313.492 358.507,313.492 	"/>
	<polygon style="fill:#64798A;" points="378.373,319.399 363.526,319.399 361.231,313.492 375.761,313.492 	"/>
	<polygon style="fill:#64798A;" points="327.422,327.136 312.159,327.136 310.928,320.897 325.856,320.897 	"/>
	<polygon style="fill:#64798A;" points="345.546,327.136 330.283,327.136 328.655,320.897 343.582,320.897 	"/>
	<polygon style="fill:#64798A;" points="363.67,327.136 348.407,327.136 346.381,320.897 361.309,320.897 	"/>
	<polygon style="fill:#64798A;" points="381.793,327.136 366.531,327.136 364.108,320.897 379.035,320.897 	"/>
	<polygon style="fill:#64798A;" points="329.475,335.318 313.775,335.318 312.472,328.72 327.82,328.72 	"/>
	<polygon style="fill:#64798A;" points="348.12,335.318 332.42,335.318 330.697,328.72 346.044,328.72 	"/>
	<polygon style="fill:#64798A;" points="366.766,335.318 351.065,335.318 348.922,328.72 364.269,328.72 	"/>
	<polygon style="fill:#64798A;" points="385.41,335.318 369.709,335.318 367.146,328.72 382.494,328.72 	"/>
	<path style="fill:#64798A;" d="M366.714,144.949H144.393c-2.954,0-5.348,2.395-5.348,5.348v135.121
		c0,2.953,2.395,5.348,5.348,5.348h222.321c2.954,0,5.348-2.395,5.348-5.348V150.297
		C372.061,147.344,369.668,144.949,366.714,144.949z"/>
</g>
<rect x="151.094" y="156.99" style="fill:#3A556A;" width="208.906" height="121.729"/>
<rect x="151.094" y="174.375" style="fill:#2F4859;" width="208.906" height="104.354"/>
<path style="fill:#3A556A;" d="M353.51,284.723H157.597c-0.615,0-1.113,0.498-1.113,1.112v8.328c0,0.615,0.498,1.112,1.113,1.112
	H353.51c0.615,0,1.112-0.498,1.112-1.112v-8.328C354.623,285.221,354.125,284.723,353.51,284.723z"/>
<circle style="fill:#E56353;" cx="348.531" cy="165.552" r="5.392"/>
<circle style="fill:#44C4A1;" cx="334.24" cy="165.552" r="5.392"/>
<circle style="fill:#FCD462;" cx="319.885" cy="165.552" r="5.392"/>
<rect x="157.156" y="160.156" style="fill:#EBF0F3;" width="151.563" height="10.79"/>
<path style="fill:#FCD462;" d="M316.827,202.163c-8.621,0.958-15.597,7.907-16.589,16.524c-0.649,5.64,1.195,10.846,4.568,14.677
	c3.735,4.244,5.639,9.796,5.639,15.449h17.09v-0.002c0-5.746,2.08-11.284,5.816-15.651c2.817-3.293,4.52-7.565,4.52-12.24
	C337.869,209.782,328.222,200.896,316.827,202.163z"/>
<path style="fill:#64798A;" d="M310.467,248.814v8.287c0,0.53,0.43,0.96,0.96,0.96h4.295c0.236,0,0.457,0.101,0.607,0.283
	c0.403,0.491,1.438,0.841,2.66,0.841s2.257-0.35,2.66-0.841c0.15-0.182,0.371-0.283,0.607-0.283h4.295c0.53,0,0.96-0.43,0.96-0.96
	v-8.287H310.467z"/>
<g>
	<path style="fill:#3A556A;" d="M328.096,248.74l-18.517,2.681c-0.566,0.083-0.955,0.609-0.872,1.175
		c0.083,0.565,0.609,0.955,1.175,0.872l18.517-2.681c0.565-0.083,0.955-0.609,0.872-1.175
		C329.188,249.046,328.661,248.656,328.096,248.74z"/>
	<path style="fill:#3A556A;" d="M328.096,253.491l-18.517,2.681c-0.566,0.083-0.955,0.609-0.872,1.175
		c0.083,0.565,0.609,0.955,1.175,0.872l18.517-2.681c0.565-0.083,0.955-0.609,0.872-1.175
		C329.188,253.797,328.661,253.406,328.096,253.491z"/>
</g>
<g>
	<path style="fill:#DC8744;" d="M340.426,221.103c0-0.471,0.382-0.853,0.853-0.853h4.044c0.471,0,0.853,0.382,0.853,0.853
		c0,0.471-0.382,0.853-0.853,0.853h-4.044C340.808,221.956,340.426,221.574,340.426,221.103z"/>
	<path style="fill:#DC8744;" d="M291.803,221.103c0-0.471,0.382-0.853,0.853-0.853h4.044c0.471,0,0.853,0.382,0.853,0.853
		c0,0.471-0.382,0.853-0.853,0.853h-4.044C292.185,221.956,291.803,221.574,291.803,221.103z"/>
	<path style="fill:#DC8744;" d="M318.99,193.917c0.471,0,0.853,0.382,0.853,0.853v4.044c0,0.471-0.382,0.853-0.853,0.853
		s-0.853-0.382-0.853-0.853v-4.044C318.137,194.299,318.519,193.917,318.99,193.917z"/>
	<path style="fill:#DC8744;" d="M334.148,236.261c0.333-0.333,0.873-0.333,1.206,0l2.859,2.859c0.333,0.333,0.333,0.873,0,1.206
		s-0.873,0.333-1.206,0l-2.859-2.859C333.815,237.134,333.815,236.594,334.148,236.261z"/>
	<path style="fill:#DC8744;" d="M299.766,201.879c0.333-0.333,0.873-0.333,1.206,0l2.859,2.859c0.333,0.333,0.333,0.873,0,1.206
		c-0.333,0.333-0.873,0.333-1.206,0l-2.859-2.859C299.433,202.753,299.433,202.213,299.766,201.879z"/>
	<path style="fill:#DC8744;" d="M303.831,236.261c0.333,0.333,0.333,0.873,0,1.206l-2.859,2.859c-0.333,0.333-0.873,0.333-1.206,0
		c-0.333-0.333-0.333-0.873,0-1.206l2.859-2.859C302.958,235.928,303.499,235.928,303.831,236.261z"/>
	<path style="fill:#DC8744;" d="M338.214,201.879c0.333,0.333,0.333,0.873,0,1.206l-2.859,2.859c-0.333,0.333-0.873,0.333-1.206,0
		c-0.333-0.333-0.333-0.873,0-1.206l2.859-2.859C337.34,201.547,337.88,201.547,338.214,201.879z"/>
</g>
<polygon style="fill:#31978C;" points="225.796,229.811 212.861,225.355 187.723,234.206 164.931,236.838 164.931,242.231 
	189.593,250.728 237.523,233.852 237.523,228.458 "/>
<polygon style="fill:#3EA69B;" points="212.861,219.961 164.931,236.838 189.593,245.334 237.523,228.458 "/>
<path style="fill:#44C4A1;" d="M186.338,242.999l-14.666-5.053c1.768-0.623,1.752-1.626-0.034-2.242l38.043-13.395
	c1.788,0.616,4.669,0.61,6.436-0.012l14.666,5.053c-1.768,0.623-1.752,1.626,0.034,2.242l-38.043,13.395
	C190.988,242.371,188.105,242.376,186.338,242.999z"/>
<g>
	<path style="fill:#3EA69B;" d="M207.801,230.333c4.646,1.601,5.469,3.934,1.839,5.214c-3.63,1.278-10.341,1.017-14.986-0.583
		c-4.646-1.601-5.469-3.934-1.839-5.214C196.446,228.471,203.155,228.732,207.801,230.333z"/>
	<path style="fill:#3EA69B;" d="M221.333,225.568c0.83,0.286,0.838,0.752,0.017,1.042c-0.822,0.29-2.16,0.292-2.992,0.005
		c-0.83-0.286-0.837-0.752-0.017-1.042C219.163,225.283,220.503,225.282,221.333,225.568z"/>
	<path style="fill:#3EA69B;" d="M184.095,238.68c0.83,0.286,0.838,0.752,0.017,1.042c-0.822,0.29-2.16,0.292-2.991,0.005
		c-0.83-0.286-0.837-0.752-0.017-1.042C181.925,238.396,183.265,238.394,184.095,238.68z"/>
</g>
<path style="fill:#44C4A1;" d="M207.646,235.107l-1.193-0.411c-1.63,0.468-3.55,0.73-5.758,0.786l-0.242-0.905
	c1.701-0.045,3.106-0.209,4.22-0.495l-3.171-1.093c-1.512,0.328-2.792,0.508-3.836,0.543c-1.045,0.034-2.04-0.111-2.981-0.436
	c-0.943-0.325-1.389-0.705-1.335-1.142c0.053-0.436,0.576-0.848,1.567-1.234l-0.818-0.281l1.034-0.365l0.833,0.288
	c1.273-0.387,2.803-0.642,4.59-0.761l0.452,0.889c-1.224,0.074-2.309,0.236-3.26,0.488l3.073,1.058l0.049-0.017
	c1.534-0.335,2.843-0.519,3.925-0.551c1.084-0.032,2.103,0.116,3.056,0.444c0.954,0.328,1.396,0.714,1.326,1.155
	c-0.069,0.442-0.625,0.866-1.671,1.272l1.176,0.405L207.646,235.107z M195.955,231.874c-0.03,0.181,0.139,0.334,0.503,0.46
	c0.366,0.126,0.761,0.187,1.19,0.184c0.427-0.002,1.042-0.076,1.842-0.222l-2.828-0.974
	C196.221,231.508,195.985,231.693,195.955,231.874z M206.526,233.145c0.051-0.193-0.114-0.354-0.495-0.485s-0.802-0.194-1.263-0.188
	c-0.461,0.007-1.114,0.091-1.955,0.25l2.942,1.014C206.218,233.534,206.474,233.338,206.526,233.145z"/>
<polygon style="fill:#31978C;" points="225.796,223.476 212.861,219.02 187.723,227.871 164.931,230.501 164.931,235.896 
	189.593,244.393 237.523,227.517 237.523,222.123 "/>
<polygon style="fill:#3EA69B;" points="212.861,213.626 164.931,230.501 189.593,238.999 237.523,222.123 "/>
<path style="fill:#44C4A1;" d="M186.338,236.663l-14.666-5.053c1.768-0.623,1.752-1.626-0.034-2.242l38.043-13.395
	c1.788,0.616,4.669,0.61,6.436-0.012l14.666,5.053c-1.768,0.623-1.752,1.626,0.034,2.242l-38.043,13.395
	C190.988,236.035,188.105,236.041,186.338,236.663z"/>
<g>
	<path style="fill:#3EA69B;" d="M207.801,223.997c4.646,1.601,5.469,3.934,1.839,5.214c-3.63,1.279-10.341,1.017-14.986-0.583
		c-4.646-1.601-5.469-3.934-1.839-5.214C196.446,222.135,203.155,222.397,207.801,223.997z"/>
	<path style="fill:#3EA69B;" d="M221.333,219.232c0.83,0.286,0.838,0.752,0.017,1.042c-0.822,0.29-2.16,0.292-2.992,0.005
		c-0.83-0.286-0.837-0.752-0.017-1.042C219.164,218.949,220.503,218.947,221.333,219.232z"/>
	<path style="fill:#3EA69B;" d="M184.095,232.344c0.83,0.286,0.838,0.752,0.017,1.042c-0.822,0.29-2.16,0.292-2.991,0.005
		c-0.83-0.286-0.837-0.752-0.017-1.042C181.925,232.06,183.265,232.058,184.095,232.344z"/>
</g>
<path style="fill:#44C4A1;" d="M207.646,228.771l-1.193-0.411c-1.63,0.468-3.55,0.73-5.758,0.786l-0.242-0.905
	c1.701-0.045,3.106-0.209,4.22-0.495l-3.171-1.093c-1.512,0.328-2.792,0.508-3.836,0.543c-1.045,0.034-2.04-0.111-2.981-0.436
	c-0.943-0.325-1.389-0.705-1.335-1.142c0.053-0.436,0.576-0.848,1.567-1.234l-0.818-0.281l1.034-0.365l0.833,0.288
	c1.273-0.387,2.803-0.642,4.59-0.761l0.452,0.889c-1.224,0.074-2.309,0.236-3.26,0.488l3.073,1.058l0.049-0.017
	c1.534-0.335,2.843-0.519,3.925-0.551c1.084-0.032,2.103,0.116,3.056,0.444c0.954,0.328,1.396,0.714,1.326,1.155
	c-0.069,0.442-0.625,0.866-1.671,1.272l1.176,0.405L207.646,228.771z M195.955,225.538c-0.03,0.181,0.139,0.334,0.503,0.46
	c0.366,0.126,0.761,0.188,1.19,0.184c0.427-0.002,1.042-0.076,1.842-0.222l-2.828-0.974
	C196.221,225.173,195.985,225.356,195.955,225.538z M206.526,226.808c0.051-0.193-0.114-0.354-0.495-0.485s-0.802-0.194-1.263-0.187
	c-0.461,0.007-1.114,0.091-1.955,0.25l2.942,1.014C206.218,227.199,206.474,227.002,206.526,226.808z"/>
<polygon style="fill:#31978C;" points="225.796,217.141 212.861,212.683 187.723,221.535 164.931,224.166 164.931,229.559 
	189.593,238.057 237.523,221.181 237.523,215.786 "/>
<polygon style="fill:#3EA69B;" points="212.861,207.29 164.931,224.166 189.593,232.663 237.523,215.786 "/>
<path style="fill:#44C4A1;" d="M186.338,230.327l-14.666-5.053c1.768-0.623,1.752-1.626-0.034-2.242l38.043-13.395
	c1.788,0.616,4.669,0.61,6.436-0.012l14.666,5.053c-1.768,0.623-1.752,1.626,0.034,2.242l-38.043,13.395
	C190.988,229.699,188.105,229.705,186.338,230.327z"/>
<g>
	<path style="fill:#3EA69B;" d="M207.801,217.661c4.646,1.601,5.469,3.934,1.839,5.214c-3.63,1.278-10.341,1.017-14.986-0.583
		c-4.646-1.601-5.469-3.934-1.839-5.214C196.446,215.8,203.155,216.06,207.801,217.661z"/>
	<path style="fill:#3EA69B;" d="M221.333,212.897c0.83,0.286,0.838,0.752,0.017,1.042c-0.822,0.29-2.16,0.292-2.992,0.005
		c-0.83-0.286-0.837-0.752-0.017-1.042C219.164,212.614,220.503,212.61,221.333,212.897z"/>
	<path style="fill:#3EA69B;" d="M184.095,226.008c0.83,0.286,0.838,0.752,0.017,1.042c-0.822,0.29-2.16,0.292-2.991,0.005
		c-0.83-0.286-0.837-0.752-0.017-1.042C181.925,225.725,183.265,225.722,184.095,226.008z"/>
</g>
<path style="fill:#44C4A1;" d="M207.646,222.435l-1.193-0.411c-1.63,0.468-3.55,0.73-5.758,0.786l-0.242-0.905
	c1.701-0.045,3.106-0.209,4.22-0.495l-3.171-1.093c-1.512,0.328-2.792,0.508-3.836,0.543c-1.045,0.034-2.04-0.111-2.981-0.436
	c-0.943-0.325-1.389-0.705-1.335-1.142c0.053-0.436,0.576-0.848,1.567-1.234l-0.818-0.281l1.034-0.365l0.833,0.287
	c1.273-0.387,2.803-0.642,4.59-0.761l0.452,0.889c-1.224,0.074-2.309,0.236-3.26,0.488l3.073,1.058l0.049-0.017
	c1.534-0.335,2.843-0.519,3.925-0.551c1.084-0.032,2.103,0.116,3.056,0.444c0.954,0.328,1.396,0.714,1.326,1.155
	c-0.069,0.442-0.625,0.866-1.671,1.272l1.176,0.405L207.646,222.435z M195.955,219.202c-0.03,0.181,0.139,0.334,0.503,0.46
	c0.366,0.126,0.761,0.188,1.19,0.184c0.427-0.002,1.042-0.076,1.842-0.222l-2.828-0.974
	C196.221,218.838,195.985,219.021,195.955,219.202z M206.526,220.473c0.051-0.193-0.114-0.354-0.495-0.485s-0.802-0.194-1.263-0.187
	c-0.461,0.007-1.114,0.091-1.955,0.25l2.942,1.014C206.218,220.863,206.474,220.666,206.526,220.473z"/>
<polygon style="fill:#31978C;" points="225.796,210.805 212.861,206.348 187.723,215.199 164.931,217.83 164.931,223.224 
	189.593,231.721 237.523,214.845 237.523,209.451 "/>
<polygon style="fill:#3EA69B;" points="212.861,200.954 164.931,217.83 189.593,226.327 237.523,209.451 "/>
<path style="fill:#44C4A1;" d="M186.338,223.992l-14.666-5.053c1.768-0.623,1.752-1.626-0.034-2.242l38.043-13.395
	c1.788,0.616,4.669,0.61,6.436-0.012l14.666,5.053c-1.768,0.623-1.752,1.626,0.034,2.242l-38.043,13.395
	C190.988,223.364,188.105,223.369,186.338,223.992z"/>
<g>
	<path style="fill:#3EA69B;" d="M207.801,211.326c4.646,1.601,5.469,3.934,1.839,5.214c-3.63,1.278-10.341,1.017-14.986-0.583
		c-4.646-1.601-5.469-3.934-1.839-5.214C196.446,209.464,203.155,209.725,207.801,211.326z"/>
	<path style="fill:#3EA69B;" d="M221.333,206.561c0.83,0.286,0.838,0.752,0.017,1.042c-0.822,0.29-2.16,0.292-2.992,0.005
		c-0.83-0.286-0.837-0.752-0.017-1.042C219.163,206.277,220.503,206.275,221.333,206.561z"/>
	<path style="fill:#3EA69B;" d="M184.095,219.673c0.83,0.286,0.838,0.752,0.017,1.042c-0.822,0.29-2.16,0.292-2.991,0.005
		c-0.83-0.286-0.837-0.752-0.017-1.042C181.925,219.39,183.265,219.386,184.095,219.673z"/>
</g>
<path style="fill:#44C4A1;" d="M207.646,216.1l-1.193-0.411c-1.63,0.468-3.55,0.73-5.758,0.786l-0.242-0.905
	c1.701-0.045,3.106-0.209,4.22-0.495l-3.171-1.093c-1.512,0.328-2.792,0.508-3.836,0.543c-1.045,0.034-2.04-0.111-2.981-0.436
	c-0.942-0.325-1.389-0.705-1.335-1.142c0.053-0.436,0.576-0.848,1.567-1.234l-0.818-0.281l1.034-0.365l0.833,0.287
	c1.273-0.387,2.803-0.642,4.59-0.761l0.452,0.889c-1.224,0.074-2.309,0.236-3.26,0.488l3.073,1.058l0.049-0.017
	c1.534-0.335,2.843-0.519,3.925-0.551c1.084-0.032,2.103,0.116,3.056,0.444c0.954,0.328,1.396,0.714,1.326,1.155
	c-0.069,0.442-0.625,0.866-1.671,1.272l1.176,0.405L207.646,216.1z M195.955,212.867c-0.03,0.181,0.139,0.334,0.503,0.46
	c0.366,0.126,0.761,0.188,1.19,0.184c0.427-0.002,1.042-0.076,1.842-0.222l-2.828-0.974
	C196.221,212.502,195.985,212.685,195.955,212.867z M206.526,214.138c0.051-0.193-0.114-0.354-0.495-0.485s-0.802-0.194-1.263-0.187
	c-0.461,0.007-1.114,0.091-1.955,0.25l2.942,1.014C206.218,214.527,206.474,214.33,206.526,214.138z"/>
<polygon style="fill:#31978C;" points="225.796,204.469 212.861,200.013 187.723,208.864 164.931,211.495 164.931,216.889 
	189.593,225.385 237.523,208.509 237.523,203.116 "/>
<polygon style="fill:#3EA69B;" points="212.861,194.619 164.931,211.495 189.593,219.992 237.523,203.116 "/>
<path style="fill:#44C4A1;" d="M186.338,217.656l-14.666-5.053c1.768-0.623,1.752-1.626-0.034-2.242l38.043-13.395
	c1.788,0.616,4.669,0.61,6.436-0.012l14.666,5.053c-1.768,0.623-1.752,1.626,0.034,2.242l-38.043,13.395
	C190.988,217.028,188.105,217.033,186.338,217.656z"/>
<g>
	<path style="fill:#3EA69B;" d="M207.801,204.991c4.646,1.601,5.469,3.934,1.839,5.214c-3.63,1.278-10.341,1.017-14.986-0.583
		c-4.646-1.601-5.469-3.934-1.839-5.214C196.446,203.128,203.155,203.39,207.801,204.991z"/>
	<path style="fill:#3EA69B;" d="M221.333,200.225c0.83,0.286,0.838,0.752,0.017,1.042c-0.822,0.29-2.16,0.292-2.992,0.005
		c-0.83-0.286-0.837-0.752-0.017-1.042C219.164,199.942,220.503,199.94,221.333,200.225z"/>
	<path style="fill:#3EA69B;" d="M184.095,213.338c0.83,0.286,0.838,0.752,0.017,1.042c-0.822,0.29-2.16,0.292-2.991,0.005
		c-0.83-0.286-0.837-0.752-0.017-1.042C181.925,213.053,183.265,213.051,184.095,213.338z"/>
</g>
<path style="fill:#44C4A1;" d="M207.646,209.765l-1.193-0.411c-1.63,0.468-3.55,0.73-5.758,0.786l-0.242-0.905
	c1.701-0.045,3.106-0.209,4.22-0.495l-3.171-1.093c-1.512,0.328-2.792,0.508-3.836,0.543c-1.045,0.034-2.04-0.111-2.981-0.436
	c-0.943-0.325-1.389-0.705-1.335-1.142c0.053-0.436,0.576-0.848,1.567-1.234l-0.818-0.281l1.034-0.365l0.833,0.287
	c1.273-0.387,2.803-0.642,4.59-0.761l0.452,0.889c-1.224,0.074-2.309,0.236-3.26,0.488l3.073,1.058l0.049-0.017
	c1.534-0.335,2.843-0.519,3.925-0.551c1.084-0.032,2.103,0.116,3.056,0.444c0.954,0.328,1.396,0.714,1.326,1.155
	c-0.069,0.442-0.625,0.866-1.671,1.272l1.176,0.405L207.646,209.765z M195.955,206.531c-0.03,0.181,0.139,0.334,0.503,0.46
	c0.366,0.126,0.761,0.188,1.19,0.184c0.427-0.002,1.042-0.076,1.842-0.222l-2.828-0.974
	C196.221,206.166,195.985,206.35,195.955,206.531z M206.526,207.802c0.051-0.193-0.114-0.354-0.495-0.485s-0.802-0.194-1.263-0.187
	c-0.461,0.007-1.114,0.091-1.955,0.25l2.942,1.014C206.218,208.192,206.474,207.995,206.526,207.802z"/>
<polygon style="fill:#FFFFFF;" points="207.931,213.534 207.931,244.279 218.958,240.397 218.958,209.652 "/>
<g>
	<polygon style="fill:#FCD462;" points="209.247,213.071 209.247,243.816 210.385,243.416 210.385,212.671 	"/>
	<polygon style="fill:#FCD462;" points="216.504,210.516 216.504,241.26 217.642,240.86 217.642,210.116 	"/>
</g>
<path style="fill:#F6C358;" d="M217.748,254.541c0,2.177-4.198,3.943-9.377,3.943s-9.377-1.766-9.377-3.943v-3.225h18.754V254.541z"
	/>
<ellipse style="fill:#FCD462;" cx="208.375" cy="251.302" rx="9.375" ry="3.942"/>
<g>
	<path style="fill:#DC8744;" d="M208.371,248.143c-4.52,0-8.184,1.421-8.184,3.173s3.665,3.173,8.184,3.173s8.184-1.421,8.184-3.173
		C216.554,249.564,212.891,248.143,208.371,248.143z M208.371,254.135c-4.018,0-7.275-1.263-7.275-2.82s3.257-2.82,7.275-2.82
		c4.018,0,7.275,1.263,7.275,2.82C215.645,252.873,212.389,254.135,208.371,254.135z"/>
	<path style="fill:#DC8744;" d="M208.071,253.507v-0.386c-1.247-0.049-2.366-0.242-3.355-0.576l0.996-0.46
		c0.764,0.257,1.55,0.41,2.359,0.46v-1.026c-1.028-0.095-1.78-0.221-2.257-0.375c-0.477-0.155-0.716-0.385-0.716-0.69
		c0-0.305,0.274-0.554,0.825-0.748c0.551-0.194,1.267-0.299,2.149-0.317v-0.265h0.873v0.27c1,0.028,1.946,0.16,2.838,0.397
		l-0.886,0.486c-0.6-0.166-1.25-0.268-1.95-0.307v0.994h0.041c1.046,0.096,1.814,0.224,2.304,0.386
		c0.492,0.163,0.737,0.398,0.737,0.706c0,0.308-0.282,0.559-0.846,0.753s-1.308,0.3-2.236,0.318v0.38h-0.875V253.507z
		 M207.108,250.094c-0.232,0.079-0.348,0.178-0.348,0.296s0.091,0.211,0.273,0.28c0.181,0.069,0.527,0.135,1.036,0.198v-0.915
		C207.661,249.968,207.341,250.015,207.108,250.094z M209.98,252.413c0.254-0.081,0.382-0.183,0.382-0.306s-0.1-0.221-0.3-0.294
		c-0.201-0.072-0.574-0.14-1.119-0.203v0.952C209.379,252.543,209.725,252.494,209.98,252.413z"/>
</g>
<path style="fill:#F6C358;" d="M217.748,250.624c0,2.177-4.198,3.943-9.377,3.943s-9.377-1.766-9.377-3.943v-3.225h18.754V250.624z"
	/>
<ellipse style="fill:#FCD462;" cx="208.375" cy="247.417" rx="9.375" ry="3.942"/>
<g>
	<path style="fill:#DC8744;" d="M208.371,244.226c-4.52,0-8.184,1.421-8.184,3.173s3.665,3.173,8.184,3.173s8.184-1.421,8.184-3.173
		S212.891,244.226,208.371,244.226z M208.371,250.219c-4.018,0-7.275-1.263-7.275-2.82c0-1.557,3.257-2.82,7.275-2.82
		c4.018,0,7.275,1.262,7.275,2.82C215.646,248.956,212.389,250.219,208.371,250.219z"/>
	<path style="fill:#DC8744;" d="M208.071,249.59v-0.386c-1.247-0.049-2.366-0.242-3.355-0.576l0.996-0.46
		c0.764,0.257,1.55,0.41,2.359,0.46v-1.026c-1.028-0.095-1.78-0.22-2.257-0.375c-0.477-0.155-0.716-0.385-0.716-0.69
		c0-0.305,0.274-0.554,0.825-0.748c0.551-0.194,1.267-0.3,2.149-0.317v-0.265h0.873v0.27c1,0.028,1.946,0.16,2.838,0.397
		l-0.886,0.486c-0.6-0.166-1.25-0.268-1.95-0.307v0.994h0.041c1.046,0.095,1.814,0.224,2.304,0.386
		c0.492,0.163,0.737,0.398,0.737,0.706c0,0.308-0.282,0.559-0.846,0.753c-0.564,0.194-1.308,0.3-2.236,0.318v0.38h-0.875V249.59z
		 M207.108,246.177c-0.232,0.079-0.348,0.178-0.348,0.296c0,0.118,0.091,0.211,0.273,0.28c0.181,0.069,0.527,0.134,1.036,0.198
		v-0.915C207.661,246.051,207.341,246.098,207.108,246.177z M209.98,248.496c0.254-0.081,0.382-0.183,0.382-0.306
		c0-0.123-0.1-0.221-0.3-0.294c-0.201-0.072-0.574-0.14-1.119-0.203v0.952C209.379,248.626,209.725,248.577,209.98,248.496z"/>
</g>
<path style="fill:#F6C358;" d="M217.748,246.706c0,2.177-4.198,3.943-9.377,3.943s-9.377-1.766-9.377-3.943v-3.225h18.754V246.706z"
	/>
<ellipse style="fill:#FCD462;" cx="208.375" cy="243.479" rx="9.375" ry="3.942"/>
<g>
	<path style="fill:#DC8744;" d="M208.371,240.309c-4.52,0-8.184,1.421-8.184,3.173s3.665,3.173,8.184,3.173s8.184-1.421,8.184-3.173
		C216.554,241.729,212.891,240.309,208.371,240.309z M208.371,246.301c-4.018,0-7.275-1.263-7.275-2.82
		c0-1.557,3.257-2.82,7.275-2.82c4.018,0,7.275,1.262,7.275,2.82C215.645,245.039,212.389,246.301,208.371,246.301z"/>
	<path style="fill:#DC8744;" d="M208.071,245.673v-0.386c-1.247-0.049-2.366-0.242-3.355-0.576l0.996-0.46
		c0.764,0.257,1.55,0.41,2.359,0.46v-1.026c-1.028-0.095-1.78-0.221-2.257-0.375c-0.477-0.155-0.716-0.385-0.716-0.69
		c0-0.304,0.274-0.554,0.825-0.748c0.551-0.194,1.267-0.299,2.149-0.317v-0.265h0.873v0.27c1,0.028,1.946,0.16,2.838,0.397
		l-0.886,0.486c-0.6-0.166-1.25-0.268-1.95-0.307v0.994h0.041c1.046,0.096,1.814,0.224,2.304,0.386
		c0.492,0.163,0.737,0.398,0.737,0.706c0,0.308-0.282,0.559-0.846,0.753s-1.308,0.3-2.236,0.318v0.38h-0.875V245.673z
		 M207.108,242.26c-0.232,0.079-0.348,0.178-0.348,0.296c0,0.118,0.091,0.211,0.273,0.28c0.181,0.069,0.527,0.135,1.036,0.198
		v-0.915C207.661,242.134,207.341,242.18,207.108,242.26z M209.98,244.578c0.254-0.081,0.382-0.183,0.382-0.306
		c0-0.123-0.1-0.221-0.3-0.294c-0.201-0.072-0.574-0.14-1.119-0.203v0.952C209.379,244.709,209.725,244.659,209.98,244.578z"/>
</g>
<path style="fill:#F6C358;" d="M217.748,242.79c0,2.177-4.198,3.943-9.377,3.943s-9.377-1.766-9.377-3.943v-3.225h18.754V242.79z"/>
<ellipse style="fill:#FCD462;" cx="208.375" cy="239.563" rx="9.375" ry="3.942"/>
<g>
	<path style="fill:#DC8744;" d="M208.371,236.392c-4.52,0-8.184,1.421-8.184,3.173s3.665,3.173,8.184,3.173s8.184-1.421,8.184-3.173
		C216.554,237.813,212.891,236.392,208.371,236.392z M208.371,242.384c-4.018,0-7.275-1.262-7.275-2.82
		c0-1.557,3.257-2.82,7.275-2.82c4.018,0,7.275,1.263,7.275,2.82C215.645,241.122,212.389,242.384,208.371,242.384z"/>
	<path style="fill:#DC8744;" d="M208.071,241.756v-0.386c-1.247-0.049-2.366-0.242-3.355-0.576l0.996-0.46
		c0.764,0.257,1.55,0.41,2.359,0.46v-1.026c-1.028-0.095-1.78-0.221-2.257-0.375c-0.477-0.155-0.716-0.385-0.716-0.69
		c0-0.305,0.274-0.554,0.825-0.748c0.551-0.194,1.267-0.3,2.149-0.317v-0.265h0.873v0.27c1,0.028,1.946,0.16,2.838,0.397
		l-0.886,0.486c-0.6-0.166-1.25-0.268-1.95-0.307v0.994h0.041c1.046,0.096,1.814,0.224,2.304,0.386
		c0.492,0.163,0.737,0.398,0.737,0.706s-0.282,0.559-0.846,0.753s-1.308,0.3-2.236,0.318v0.38h-0.875V241.756z M207.108,238.343
		c-0.232,0.079-0.348,0.178-0.348,0.296s0.091,0.211,0.273,0.28c0.181,0.069,0.527,0.135,1.036,0.198v-0.915
		C207.661,238.217,207.341,238.264,207.108,238.343z M209.98,240.661c0.254-0.081,0.382-0.183,0.382-0.306
		c0-0.123-0.1-0.221-0.3-0.294c-0.201-0.072-0.574-0.14-1.119-0.203v0.952C209.379,240.792,209.725,240.743,209.98,240.661z"/>
</g>
<path style="fill:#F6C358;" d="M217.748,238.873c0,2.177-4.198,3.943-9.377,3.943s-9.377-1.766-9.377-3.943v-3.225h18.754V238.873z"
	/>
<ellipse style="fill:#FCD462;" cx="208.375" cy="235.625" rx="9.375" ry="3.942"/>
<g>
	<path style="fill:#DC8744;" d="M208.371,232.475c-4.52,0-8.184,1.421-8.184,3.173s3.665,3.173,8.184,3.173s8.184-1.421,8.184-3.173
		C216.554,233.896,212.891,232.475,208.371,232.475z M208.371,238.468c-4.018,0-7.275-1.263-7.275-2.82s3.257-2.82,7.275-2.82
		c4.018,0,7.275,1.263,7.275,2.82C215.645,237.205,212.389,238.468,208.371,238.468z"/>
	<path style="fill:#DC8744;" d="M208.071,237.839v-0.386c-1.247-0.049-2.366-0.242-3.355-0.576l0.996-0.46
		c0.764,0.257,1.55,0.41,2.359,0.46v-1.026c-1.028-0.095-1.78-0.22-2.257-0.375c-0.477-0.155-0.716-0.385-0.716-0.69
		c0-0.305,0.274-0.554,0.825-0.748c0.551-0.194,1.267-0.3,2.149-0.317v-0.265h0.873v0.27c1,0.028,1.946,0.16,2.838,0.397
		l-0.886,0.486c-0.6-0.166-1.25-0.268-1.95-0.307v0.994h0.041c1.046,0.095,1.814,0.224,2.304,0.386
		c0.492,0.163,0.737,0.398,0.737,0.706s-0.282,0.559-0.846,0.753s-1.308,0.3-2.236,0.318v0.38h-0.875V237.839z M207.108,234.426
		c-0.232,0.079-0.348,0.178-0.348,0.296c0,0.118,0.091,0.211,0.273,0.28c0.181,0.069,0.527,0.135,1.036,0.198v-0.915
		C207.661,234.3,207.341,234.347,207.108,234.426z M209.98,236.745c0.254-0.081,0.382-0.183,0.382-0.306s-0.1-0.221-0.3-0.294
		c-0.201-0.072-0.574-0.14-1.119-0.203v0.952C209.379,236.875,209.725,236.826,209.98,236.745z"/>
</g>
<path style="fill:#F6C358;" d="M217.748,234.955c0,2.177-4.198,3.943-9.377,3.943s-9.377-1.766-9.377-3.943v-3.225h18.754V234.955z"
	/>
<ellipse style="fill:#FCD462;" cx="208.375" cy="231.729" rx="9.375" ry="3.942"/>
<g>
	<path style="fill:#DC8744;" d="M208.371,228.558c-4.52,0-8.184,1.421-8.184,3.173s3.665,3.173,8.184,3.173s8.184-1.421,8.184-3.173
		C216.554,229.978,212.891,228.558,208.371,228.558z M208.371,234.55c-4.018,0-7.275-1.263-7.275-2.82s3.257-2.82,7.275-2.82
		c4.018,0,7.275,1.263,7.275,2.82C215.645,233.288,212.389,234.55,208.371,234.55z"/>
	<path style="fill:#DC8744;" d="M208.071,233.922v-0.386c-1.247-0.049-2.366-0.242-3.355-0.576l0.996-0.46
		c0.764,0.257,1.55,0.41,2.359,0.46v-1.026c-1.028-0.095-1.78-0.221-2.257-0.375c-0.477-0.155-0.716-0.385-0.716-0.69
		c0-0.305,0.274-0.554,0.825-0.748c0.551-0.194,1.267-0.3,2.149-0.317v-0.265h0.873v0.27c1,0.028,1.946,0.16,2.838,0.397
		l-0.886,0.486c-0.6-0.166-1.25-0.268-1.95-0.307v0.994h0.041c1.046,0.095,1.814,0.224,2.304,0.386
		c0.492,0.163,0.737,0.398,0.737,0.706c0,0.308-0.282,0.559-0.846,0.753c-0.564,0.194-1.308,0.3-2.236,0.318v0.38h-0.875V233.922z
		 M207.108,230.509c-0.232,0.079-0.348,0.178-0.348,0.296c0,0.118,0.091,0.211,0.273,0.28c0.181,0.069,0.527,0.134,1.036,0.198
		v-0.915C207.661,230.383,207.341,230.43,207.108,230.509z M209.98,232.828c0.254-0.081,0.382-0.183,0.382-0.306
		c0-0.123-0.1-0.221-0.3-0.294c-0.201-0.072-0.574-0.14-1.119-0.203v0.952C209.379,232.958,209.725,232.908,209.98,232.828z"/>
</g>
<path style="fill:#F6C358;" d="M217.748,231.039c0,2.177-4.198,3.943-9.377,3.943s-9.377-1.766-9.377-3.943v-3.225h18.754V231.039z"
	/>
<ellipse style="fill:#FCD462;" cx="208.375" cy="227.813" rx="9.375" ry="3.942"/>
<g>
	<path style="fill:#DC8744;" d="M208.371,224.641c-4.52,0-8.184,1.421-8.184,3.173s3.665,3.173,8.184,3.173s8.184-1.421,8.184-3.173
		C216.554,226.061,212.891,224.641,208.371,224.641z M208.371,230.633c-4.018,0-7.275-1.263-7.275-2.82
		c0-1.557,3.257-2.82,7.275-2.82c4.018,0,7.275,1.262,7.275,2.82C215.645,229.371,212.389,230.633,208.371,230.633z"/>
	<path style="fill:#DC8744;" d="M208.071,230.005v-0.386c-1.247-0.049-2.366-0.242-3.355-0.576l0.996-0.46
		c0.764,0.257,1.55,0.41,2.359,0.46v-1.026c-1.028-0.095-1.78-0.221-2.257-0.375c-0.477-0.155-0.716-0.385-0.716-0.69
		c0-0.304,0.274-0.554,0.825-0.748c0.551-0.194,1.267-0.3,2.149-0.317v-0.265h0.873v0.27c1,0.028,1.946,0.16,2.838,0.397
		l-0.886,0.486c-0.6-0.166-1.25-0.268-1.95-0.307v0.994h0.041c1.046,0.096,1.814,0.224,2.304,0.386
		c0.492,0.163,0.737,0.398,0.737,0.706c0,0.308-0.282,0.559-0.846,0.753s-1.308,0.3-2.236,0.318v0.38h-0.875V230.005z
		 M207.108,226.593c-0.232,0.079-0.348,0.178-0.348,0.296c0,0.118,0.091,0.211,0.273,0.28c0.181,0.069,0.527,0.135,1.036,0.198
		v-0.915C207.661,226.467,207.341,226.513,207.108,226.593z M209.98,228.91c0.254-0.081,0.382-0.183,0.382-0.306
		c0-0.123-0.1-0.221-0.3-0.294c-0.201-0.072-0.574-0.14-1.119-0.203v0.952C209.379,229.042,209.725,228.992,209.98,228.91z"/>
</g>
<path style="fill:#F6C358;" d="M217.748,227.122c0,2.177-4.198,3.943-9.377,3.943s-9.377-1.766-9.377-3.943v-3.225h18.754V227.122z"
	/>
<ellipse style="fill:#FCD462;" cx="208.375" cy="223.896" rx="9.375" ry="3.942"/>
<g>
	<path style="fill:#DC8744;" d="M208.371,220.724c-4.52,0-8.184,1.421-8.184,3.173s3.665,3.173,8.184,3.173s8.184-1.421,8.184-3.173
		C216.554,222.145,212.891,220.724,208.371,220.724z M208.371,226.717c-4.018,0-7.275-1.262-7.275-2.82
		c0-1.557,3.257-2.82,7.275-2.82c4.018,0,7.275,1.263,7.275,2.82C215.645,225.454,212.389,226.717,208.371,226.717z"/>
	<path style="fill:#DC8744;" d="M208.071,226.089v-0.386c-1.247-0.049-2.366-0.242-3.355-0.576l0.996-0.46
		c0.764,0.257,1.55,0.41,2.359,0.46V224.1c-1.028-0.095-1.78-0.22-2.257-0.375c-0.477-0.155-0.716-0.385-0.716-0.69
		s0.274-0.554,0.825-0.748c0.551-0.194,1.267-0.3,2.149-0.317v-0.265h0.873v0.27c1,0.028,1.946,0.16,2.838,0.397l-0.886,0.486
		c-0.6-0.166-1.25-0.268-1.95-0.307v0.994h0.041c1.046,0.095,1.814,0.224,2.304,0.386c0.492,0.163,0.737,0.398,0.737,0.706
		s-0.282,0.559-0.846,0.753s-1.308,0.3-2.236,0.318v0.38h-0.875V226.089z M207.108,222.675c-0.232,0.079-0.348,0.178-0.348,0.296
		c0,0.118,0.091,0.211,0.273,0.28c0.181,0.069,0.527,0.134,1.036,0.198v-0.915C207.661,222.549,207.341,222.596,207.108,222.675z
		 M209.98,224.994c0.254-0.081,0.382-0.183,0.382-0.306c0-0.123-0.1-0.221-0.3-0.294c-0.201-0.072-0.574-0.14-1.119-0.203v0.952
		C209.379,225.124,209.725,225.075,209.98,224.994z"/>
</g>
<path style="fill:#F6C358;" d="M237.523,254.541c0,2.177-4.198,3.943-9.377,3.943s-9.377-1.766-9.377-3.943v-3.225h18.754V254.541z"
	/>
<ellipse style="fill:#FCD462;" cx="228.146" cy="251.302" rx="9.375" ry="3.942"/>
<g>
	<path style="fill:#DC8744;" d="M228.146,248.143c-4.52,0-8.184,1.421-8.184,3.173s3.665,3.173,8.184,3.173s8.184-1.421,8.184-3.173
		C236.329,249.564,232.666,248.143,228.146,248.143z M228.146,254.135c-4.018,0-7.275-1.263-7.275-2.82s3.257-2.82,7.275-2.82
		s7.275,1.263,7.275,2.82C235.42,252.873,232.163,254.135,228.146,254.135z"/>
	<path style="fill:#DC8744;" d="M227.846,253.507v-0.386c-1.247-0.049-2.366-0.242-3.355-0.576l0.996-0.46
		c0.764,0.257,1.55,0.41,2.359,0.46v-1.026c-1.028-0.095-1.78-0.221-2.257-0.375c-0.477-0.155-0.716-0.385-0.716-0.69
		c0-0.305,0.274-0.554,0.825-0.748c0.551-0.194,1.267-0.299,2.149-0.317v-0.265h0.873v0.27c1,0.028,1.946,0.16,2.838,0.397
		l-0.886,0.486c-0.6-0.166-1.25-0.268-1.95-0.307v0.994h0.041c1.046,0.096,1.814,0.224,2.304,0.386
		c0.492,0.163,0.737,0.398,0.737,0.706c0,0.308-0.282,0.559-0.846,0.753s-1.308,0.3-2.236,0.318v0.38h-0.875V253.507z
		 M226.883,250.094c-0.232,0.079-0.348,0.178-0.348,0.296s0.091,0.211,0.273,0.28c0.181,0.069,0.527,0.135,1.036,0.198v-0.915
		C227.436,249.968,227.116,250.015,226.883,250.094z M229.755,252.413c0.254-0.081,0.382-0.183,0.382-0.306s-0.1-0.221-0.3-0.294
		c-0.201-0.072-0.574-0.14-1.119-0.203v0.952C229.154,252.543,229.5,252.494,229.755,252.413z"/>
</g>
<path style="fill:#F6C358;" d="M237.523,250.624c0,2.177-4.198,3.943-9.377,3.943s-9.377-1.766-9.377-3.943v-3.225h18.754V250.624z"
	/>
<ellipse style="fill:#FCD462;" cx="228.146" cy="247.417" rx="9.375" ry="3.942"/>
<g>
	<path style="fill:#DC8744;" d="M228.146,244.226c-4.52,0-8.184,1.421-8.184,3.173s3.665,3.173,8.184,3.173s8.184-1.421,8.184-3.173
		S232.666,244.226,228.146,244.226z M228.146,250.219c-4.018,0-7.275-1.263-7.275-2.82c0-1.557,3.257-2.82,7.275-2.82
		s7.275,1.262,7.275,2.82C235.421,248.956,232.163,250.219,228.146,250.219z"/>
	<path style="fill:#DC8744;" d="M227.846,249.59v-0.386c-1.247-0.049-2.366-0.242-3.355-0.576l0.996-0.46
		c0.764,0.257,1.55,0.41,2.359,0.46v-1.026c-1.028-0.095-1.78-0.22-2.257-0.375c-0.477-0.155-0.716-0.385-0.716-0.69
		c0-0.305,0.274-0.554,0.825-0.748c0.551-0.194,1.267-0.3,2.149-0.317v-0.265h0.873v0.27c1,0.028,1.946,0.16,2.838,0.397
		l-0.886,0.486c-0.6-0.166-1.25-0.268-1.95-0.307v0.994h0.041c1.046,0.095,1.814,0.224,2.304,0.386
		c0.492,0.163,0.737,0.398,0.737,0.706c0,0.308-0.282,0.559-0.846,0.753c-0.564,0.194-1.308,0.3-2.236,0.318v0.38h-0.875V249.59z
		 M226.883,246.177c-0.232,0.079-0.348,0.178-0.348,0.296c0,0.118,0.091,0.211,0.273,0.28c0.181,0.069,0.527,0.134,1.036,0.198
		v-0.915C227.436,246.051,227.116,246.098,226.883,246.177z M229.755,248.496c0.254-0.081,0.382-0.183,0.382-0.306
		c0-0.123-0.1-0.221-0.3-0.294c-0.201-0.072-0.574-0.14-1.119-0.203v0.952C229.154,248.626,229.5,248.577,229.755,248.496z"/>
</g>
<path style="fill:#F6C358;" d="M237.523,246.706c0,2.177-4.198,3.943-9.377,3.943s-9.377-1.766-9.377-3.943v-3.225h18.754V246.706z"
	/>
<ellipse style="fill:#FCD462;" cx="228.146" cy="243.479" rx="9.375" ry="3.942"/>
<g>
	<path style="fill:#DC8744;" d="M228.146,240.309c-4.52,0-8.184,1.421-8.184,3.173s3.665,3.173,8.184,3.173s8.184-1.421,8.184-3.173
		C236.329,241.729,232.666,240.309,228.146,240.309z M228.146,246.301c-4.018,0-7.275-1.263-7.275-2.82
		c0-1.557,3.257-2.82,7.275-2.82s7.275,1.262,7.275,2.82C235.42,245.039,232.163,246.301,228.146,246.301z"/>
	<path style="fill:#DC8744;" d="M227.846,245.673v-0.386c-1.247-0.049-2.366-0.242-3.355-0.576l0.996-0.46
		c0.764,0.257,1.55,0.41,2.359,0.46v-1.026c-1.028-0.095-1.78-0.221-2.257-0.375c-0.477-0.155-0.716-0.385-0.716-0.69
		c0-0.304,0.274-0.554,0.825-0.748c0.551-0.194,1.267-0.299,2.149-0.317v-0.265h0.873v0.27c1,0.028,1.946,0.16,2.838,0.397
		l-0.886,0.486c-0.6-0.166-1.25-0.268-1.95-0.307v0.994h0.041c1.046,0.096,1.814,0.224,2.304,0.386
		c0.492,0.163,0.737,0.398,0.737,0.706c0,0.308-0.282,0.559-0.846,0.753s-1.308,0.3-2.236,0.318v0.38h-0.875V245.673z
		 M226.883,242.26c-0.232,0.079-0.348,0.178-0.348,0.296c0,0.118,0.091,0.211,0.273,0.28c0.181,0.069,0.527,0.135,1.036,0.198
		v-0.915C227.436,242.134,227.116,242.18,226.883,242.26z M229.755,244.578c0.254-0.081,0.382-0.183,0.382-0.306
		c0-0.123-0.1-0.221-0.3-0.294c-0.201-0.072-0.574-0.14-1.119-0.203v0.952C229.154,244.709,229.5,244.659,229.755,244.578z"/>
</g>
<path style="fill:#F6C358;" d="M237.523,242.79c0,2.177-4.198,3.943-9.377,3.943s-9.377-1.766-9.377-3.943v-3.225h18.754V242.79z"/>
<ellipse style="fill:#FCD462;" cx="228.146" cy="239.563" rx="9.375" ry="3.942"/>
<g>
	<path style="fill:#DC8744;" d="M228.146,236.392c-4.52,0-8.184,1.421-8.184,3.173s3.665,3.173,8.184,3.173s8.184-1.421,8.184-3.173
		C236.329,237.813,232.666,236.392,228.146,236.392z M228.146,242.384c-4.018,0-7.275-1.262-7.275-2.82
		c0-1.557,3.257-2.82,7.275-2.82s7.275,1.263,7.275,2.82C235.42,241.122,232.163,242.384,228.146,242.384z"/>
	<path style="fill:#DC8744;" d="M227.846,241.756v-0.386c-1.247-0.049-2.366-0.242-3.355-0.576l0.996-0.46
		c0.764,0.257,1.55,0.41,2.359,0.46v-1.026c-1.028-0.095-1.78-0.221-2.257-0.375c-0.477-0.155-0.716-0.385-0.716-0.69
		c0-0.305,0.274-0.554,0.825-0.748c0.551-0.194,1.267-0.3,2.149-0.317v-0.265h0.873v0.27c1,0.028,1.946,0.16,2.838,0.397
		l-0.886,0.486c-0.6-0.166-1.25-0.268-1.95-0.307v0.994h0.041c1.046,0.096,1.814,0.224,2.304,0.386
		c0.492,0.163,0.737,0.398,0.737,0.706s-0.282,0.559-0.846,0.753s-1.308,0.3-2.236,0.318v0.38h-0.875V241.756z M226.883,238.343
		c-0.232,0.079-0.348,0.178-0.348,0.296s0.091,0.211,0.273,0.28c0.181,0.069,0.527,0.135,1.036,0.198v-0.915
		C227.436,238.217,227.116,238.264,226.883,238.343z M229.755,240.661c0.254-0.081,0.382-0.183,0.382-0.306
		c0-0.123-0.1-0.221-0.3-0.294c-0.201-0.072-0.574-0.14-1.119-0.203v0.952C229.154,240.792,229.5,240.743,229.755,240.661z"/>
</g>
<path style="fill:#F6C358;" d="M237.523,238.873c0,2.177-4.198,3.943-9.377,3.943s-9.377-1.766-9.377-3.943v-3.225h18.754V238.873z"
	/>
<ellipse style="fill:#FCD462;" cx="228.146" cy="235.625" rx="9.375" ry="3.942"/>
<g>
	<path style="fill:#DC8744;" d="M228.146,232.475c-4.52,0-8.184,1.421-8.184,3.173s3.665,3.173,8.184,3.173s8.184-1.421,8.184-3.173
		C236.329,233.896,232.666,232.475,228.146,232.475z M228.146,238.468c-4.018,0-7.275-1.263-7.275-2.82s3.257-2.82,7.275-2.82
		s7.275,1.263,7.275,2.82C235.42,237.205,232.163,238.468,228.146,238.468z"/>
	<path style="fill:#DC8744;" d="M227.846,237.839v-0.386c-1.247-0.049-2.366-0.242-3.355-0.576l0.996-0.46
		c0.764,0.257,1.55,0.41,2.359,0.46v-1.026c-1.028-0.095-1.78-0.22-2.257-0.375c-0.477-0.155-0.716-0.385-0.716-0.69
		c0-0.305,0.274-0.554,0.825-0.748c0.551-0.194,1.267-0.3,2.149-0.317v-0.265h0.873v0.27c1,0.028,1.946,0.16,2.838,0.397
		l-0.886,0.486c-0.6-0.166-1.25-0.268-1.95-0.307v0.994h0.041c1.046,0.095,1.814,0.224,2.304,0.386
		c0.492,0.163,0.737,0.398,0.737,0.706s-0.282,0.559-0.846,0.753s-1.308,0.3-2.236,0.318v0.38h-0.875V237.839z M226.883,234.426
		c-0.232,0.079-0.348,0.178-0.348,0.296c0,0.118,0.091,0.211,0.273,0.28c0.181,0.069,0.527,0.135,1.036,0.198v-0.915
		C227.436,234.3,227.116,234.347,226.883,234.426z M229.755,236.745c0.254-0.081,0.382-0.183,0.382-0.306s-0.1-0.221-0.3-0.294
		c-0.201-0.072-0.574-0.14-1.119-0.203v0.952C229.154,236.875,229.5,236.826,229.755,236.745z"/>
</g>
<circle style="fill:#FCD462;" cx="211.531" cy="248.156" r="10.32"/>
<g>
	<path style="fill:#DC8744;" d="M211.538,239.152c-4.975,0-9.008,4.033-9.008,9.008s4.033,9.008,9.008,9.008
		s9.008-4.033,9.008-9.008C220.547,243.185,216.514,239.152,211.538,239.152z M211.538,256.169c-4.423,0-8.007-3.585-8.007-8.007
		c0-4.423,3.585-8.007,8.007-8.007s8.007,3.585,8.007,8.007C219.546,252.583,215.96,256.169,211.538,256.169z"/>
	<path style="fill:#DC8744;" d="M211.208,254.384v-1.096c-1.372-0.14-2.604-0.685-3.694-1.636l1.096-1.306
		c0.841,0.73,1.705,1.166,2.598,1.306v-2.913c-1.131-0.27-1.959-0.626-2.485-1.066c-0.525-0.441-0.789-1.094-0.789-1.959
		s0.302-1.574,0.908-2.125c0.606-0.55,1.394-0.85,2.366-0.9v-0.751h0.96v0.766c1.101,0.08,2.142,0.456,3.123,1.126l-0.976,1.381
		c-0.661-0.471-1.376-0.76-2.147-0.871v2.823h0.045c1.151,0.271,1.997,0.636,2.536,1.096c0.542,0.46,0.811,1.129,0.811,2.004
		c0,0.876-0.31,1.59-0.931,2.14c-0.621,0.551-1.441,0.851-2.462,0.901v1.081h-0.959V254.384z M210.149,244.693
		c-0.255,0.225-0.382,0.505-0.382,0.841s0.1,0.601,0.301,0.796c0.199,0.196,0.58,0.383,1.142,0.564v-2.598
		C210.757,244.335,210.404,244.468,210.149,244.693z M213.309,251.276c0.28-0.23,0.421-0.52,0.421-0.871
		c0-0.35-0.11-0.628-0.33-0.833c-0.221-0.205-0.631-0.398-1.231-0.578v2.702C212.649,251.647,213.028,251.507,213.309,251.276z"/>
</g>
<g>
	<rect x="252.958" y="215.302" style="fill:#EBF0F3;" width="25.01" height="5.313"/>
	<rect x="252.958" y="232.469" style="fill:#EBF0F3;" width="25.01" height="5.313"/>
</g>
<g>
</g>
<g>
</g>
<g>
</g>
<g>
</g>
<g>
</g>
<g>
</g>
<g>
</g>
<g>
</g>
<g>
</g>
<g>
</g>
<g>
</g>
<g>
</g>
<g>
</g>
<g>
</g>
<g>
</g>
</svg>
